Coordinates
version=1
nRows=11
nColumns=40
inDegrees=yes

Units are S.I. units (second, meters, Newtons, ...)
Angles are in degrees.

endheader
time	pelvis_tilt	pelvis_list	pelvis_rotation	pelvis_tx	pelvis_ty	pelvis_tz	hip_flexion_r	hip_adduction_r	hip_rotation_r	knee_angle_r	knee_angle_r_beta	ankle_angle_r	subtalar_angle_r	mtp_angle_r	hip_flexion_l	hip_adduction_l	hip_rotation_l	knee_angle_l	knee_angle_l_beta	ankle_angle_l	subtalar_angle_l	mtp_angle_l	lumbar_extension	lumbar_bending	lumbar_rotation	arm_flex_r	arm_add_r	arm_rot_r	elbow_flex_r	pro_sup_r	wrist_flex_r	wrist_dev_r	arm_flex_l	arm_add_l	arm_rot_l	elbow_flex_l	pro_sup_l	wrist_flex_l	wrist_dev_l
     19.37000000	     -6.45640694	     -3.77118859	      5.04099030	      0.82577597	      0.92088238	      0.38853752	      8.93676384	     -7.62617675	    -12.78255262	     42.05323953	     42.05323953	      6.20645156	    -17.20526841	     -7.57678140	     20.16520707	     -2.05394965	      1.37435795	     29.13193819	     29.13193819	     17.08202964	    -16.75034995	      9.38033937	     -9.12553552	      6.21235535	      5.57281073	     35.16661981	    -11.19200823	     -1.21899340	     51.22970536	     46.11573715	      0.00000000	      0.00000000	      5.90143597	    -19.87574793	     -7.23539254	     62.01900373	     46.72030507	      0.00000000	      0.00000000
     19.38950000	     -6.43688418	     -3.60285920	      4.38552002	      0.82448550	      0.91951609	      0.38620743	     11.01479102	     -8.38368424	    -12.52471196	     45.74447045	     45.74447045	      5.44004865	    -18.31312805	     -6.98025733	     19.93230941	     -1.83137089	      1.01166970	     29.60958203	     29.60958203	     17.62563404	    -17.16128237	      9.30160687	     -9.26773211	      6.25693501	      5.25858405	     32.85317841	    -11.70178285	     -1.27852627	     49.43347453	     46.16497651	      0.00000000	      0.00000000	      7.42526108	    -20.22520746	     -7.47329516	     62.86838690	     46.76983930	      0.00000000	      0.00000000
     19.40900000	     -6.38310991	     -3.59185893	      3.70840724	      0.82311046	      0.91826560	      0.38428333	     13.31506498	     -8.63807778	    -11.78232987	     49.75283934	     49.75283934	      7.41231677	    -18.57442186	      2.11184971	     19.72917940	     -1.80935780	      0.64124697	     30.21243106	     30.21243106	     18.63864042	    -17.38228838	     10.16437283	     -9.40860405	      6.40976643	      5.10286991	     31.45387666	    -11.85495882	     -2.38986417	     44.38224017	     46.34865923	      0.00000000	      0.00000000	      9.21588150	    -20.74973808	     -6.85949475	     63.55583880	     46.80625408	      0.00000000	      0.00000000
     19.42850000	     -6.31196755	     -3.39308280	      3.01359805	      0.82184640	      0.91704038	      0.38224927	     15.16549196	     -9.30614376	    -11.59263524	     52.73955295	     52.73955295	      7.08714905	    -18.99202973	      3.13854450	     19.37730596	     -1.60642441	      0.12329079	     30.59435019	     30.59435019	     19.18180682	    -17.60103824	     10.01820595	     -9.67407671	      6.36169173	      4.92207281	     29.04303403	    -12.50753650	     -2.55146338	     42.54691269	     46.40390612	      0.00000000	      0.00000000	     10.89444128	    -21.03897753	     -7.20719145	     64.62656062	     46.86946677	      0.00000000	      0.00000000
     19.44800000	     -6.19142924	     -3.43169583	      2.33846519	      0.82060467	      0.91623401	      0.38084396	     17.08938225	     -9.30173391	    -10.98822811	     55.60683541	     55.60683541	      9.33032213	    -19.10582521	     11.95392287	     19.00002165	     -1.68504528	     -0.30257760	     30.99594199	     30.99594199	     19.97918318	    -17.73293338	     10.52217608	     -9.92627031	      6.58649170	      4.88632738	     27.52246452	    -12.72122052	     -3.98184145	     37.82314226	     46.59298449	      0.00000000	      0.00000000	     12.86029427	    -21.44339066	     -6.80081040	     65.15324197	     46.92632440	      0.00000000	      0.00000000
     19.46750000	     -6.10411856	     -3.38597093	      1.65481378	      0.81945840	      0.91564159	      0.37970527	     18.69677281	     -9.47326994	    -10.76943109	     57.49579570	     57.49579570	     10.05430759	    -19.24690853	     14.80155048	     18.54706874	     -1.69443347	     -0.79631640	     31.18379749	     31.18379749	     20.50187124	    -17.85583297	     10.63405306	    -10.18024988	      6.68881271	      4.83629048	     25.48884279	    -13.13581753	     -4.90188634	     34.79466212	     46.69966541	      0.00000000	      0.00000000	     14.70953711	    -21.67306795	     -6.81789873	     65.86759800	     47.00245246	      0.00000000	      0.00000000
     19.48700000	     -6.06207084	     -3.32917412	      0.95837789	      0.81838259	      0.91535800	      0.37904996	     20.15819307	     -9.58796866	    -10.66528360	     58.62286828	     58.62286828	     10.28494275	    -19.33607308	     15.11789480	     18.05766902	     -1.72958780	     -1.35485073	     31.19563620	     31.19563620	     20.85946445	    -17.91285551	     10.58032814	    -10.43488677	      6.74160654	      4.72655738	     23.05346630	    -13.65641142	     -5.02360973	     33.12714972	     46.74801538	      0.00000000	      0.00000000	     16.31098171	    -21.83868491	     -7.13828140	     66.93799351	     47.06186083	      0.00000000	      0.00000000
     19.50650000	     -6.01265248	     -3.40449865	      0.23798103	      0.81746617	      0.91557615	      0.37907607	     21.45959872	     -9.38146371	    -10.57354470	     59.02726465	     59.02726465	     10.80708900	    -19.37597499	     15.76053998	     17.47443261	     -1.95044797	     -1.91603173	     31.05293025	     31.05293025	     21.14429625	    -17.93520077	     10.59543999	    -10.65347850	      6.90455129	      4.81024192	     20.60112665	    -14.16790748	     -5.14293669	     31.15345693	     46.80847965	      0.00000000	      0.00000000	     18.00549257	    -21.88570930	     -7.35365717	     67.97431739	     47.11492119	      0.00000000	      0.00000000
     19.52600000	     -6.00950018	     -3.55685360	     -0.48755126	      0.81660063	      0.91616986	      0.37974057	     22.69934010	     -8.92891418	    -10.43929365	     58.75032660	     58.75032660	     11.45212092	    -19.36059974	     16.33241364	     16.86273410	     -2.28899216	     -2.47912814	     30.75716841	     30.75716841	     21.31361548	    -17.93946366	     10.59679057	    -10.83347403	      7.13834212	      4.81108955	     18.25149273	    -14.51791673	     -5.28202619	     29.21467198	     46.86834408	      0.00000000	      0.00000000	     19.60257480	    -21.96685147	     -7.48256682	     68.82892705	     47.15975635	      0.00000000	      0.00000000
     19.54550000	     -6.08678609	     -3.72484862	     -1.24057397	      0.81587632	      0.91709544	      0.38102275	     23.88556200	     -8.31814210	    -10.26027413	     57.75437555	     57.75437555	     11.95607231	    -19.30750148	     16.30541211	     16.21966285	     -2.68527033	     -3.10003260	     30.25992410	     30.25992410	     21.37017681	    -17.87113504	     10.59196067	    -10.89642966	      7.37203941	      4.68205091	     15.83313469	    -14.73493648	     -5.35529625	     27.72830308	     46.90807343	      0.00000000	      0.00000000	     20.95501278	    -22.09774963	     -7.71062598	     69.77369632	     47.20666651	      0.00000000	      0.00000000
     19.56500000	     -6.21427373	     -3.95566718	     -2.02446094	      0.81523218	      0.91825891	      0.38300853	     24.97297298	     -7.49406757	    -10.01583005	     56.05573549	     56.05573549	     12.34157867	    -19.19639069	     15.78138990	     15.55431310	     -3.19412746	     -3.76039467	     29.64704833	     29.64704833	     21.33232249	    -17.76406411	     10.51327087	    -10.92147221	      7.60043230	      4.66326895	     13.35098291	    -14.90921172	     -5.42244733	     26.41221937	     46.93922137	      0.00000000	      0.00000000	     22.27144245	    -22.18028388	     -7.97699812	     70.87493278	     47.25852613	      0.00000000	      0.00000000
